<?xml version="1.0" encoding="utf-8"?><!-- Uploaded to: SVG Repo, www.svgrepo.com, Generator: SVG Repo Mixer Tools -->
<svg width="800px" height="800px" viewBox="0 0 24 24" id="Line_Color" data-name="Line Color" xmlns="http://www.w3.org/2000/svg"><path id="primary" d="M13,3a4.9,4.9,0,0,0-1,3" style="fill:none;stroke:#000000;stroke-linecap:round;stroke-linejoin:round;stroke-width:2px"></path><path id="primary-2" data-name="primary" d="M12,21h0a5.47,5.47,0,0,1-5.45-5L6,10H18l-.55,6A5.47,5.47,0,0,1,12,21Z" style="fill:none;stroke:#000000;stroke-linecap:round;stroke-linejoin:round;stroke-width:2px"></path><path id="secondary" d="M8,6h8a3,3,0,0,1,3,3V9a1,1,0,0,1-1,1H6A1,1,0,0,1,5,9V9A3,3,0,0,1,8,6Z" style="fill:none;stroke:#2ca9bc;stroke-linecap:round;stroke-linejoin:round;stroke-width:2px"></path></svg>